<?xml version="1.0" standalone="no"?><!DOCTYPE svg PUBLIC "-//W3C//DTD SVG 1.1//EN" "http://www.w3.org/Graphics/SVG/1.1/DTD/svg11.dtd"><svg t="1514046863748" class="icon" style="" viewBox="0 0 1126 1024" version="1.1" xmlns="http://www.w3.org/2000/svg" p-id="998" xmlns:xlink="http://www.w3.org/1999/xlink" width="219.921875" height="200"><defs><style type="text/css"></style></defs><path d="M530.1248 88.448c14.5408-4.9408 28.8512-7.5776 40.9344-6.9888 8.8576 0.4608 15.6928 2.6112 20.8128 6.4 18.5856 13.7216 105.3184 81.152 236.9024 184.0128a200321.8688 200321.8688 0 0 1 220.9792 173.0304l20.6336 16.1792 47.3856-60.416c-3.7376-2.9696-3.7376-2.9696-20.6336-16.2048a228042.496 228042.496 0 0 0-219.8528-172.16c-134.144-104.832-220.3136-171.8528-239.8208-186.24-18.176-13.44-39.4752-20.1216-62.5408-21.2992-23.1424-1.1776-46.592 3.1744-69.5296 11.008-12.0576 4.096-21.504 8.2688-27.52 11.3664l-3.072 1.6128L0.0768 396.6208l47.0528 60.7232L515.9424 94.0032a156.16 156.16 0 0 1 14.1824-5.5552z" p-id="999"></path><path d="M338.432 933.376c-53.3248-8.2688-89.344-30.208-112.896-61.696a146.2784 146.2784 0 0 1-22.4256-43.8784 113.3568 113.3568 0 0 1-3.9424-15.9744V315.648h-76.8V814.08l0.1792 3.6864c2.56 26.5728 14.0544 63.232 41.472 99.9168 36.0448 48.2048 90.9824 81.2288 166.0416 92.1088l5.504 0.384h480.1024l3.1488-0.128c23.3472-1.92 55.424-10.7776 87.808-32.2816 54.0928-35.9168 86.784-95.4624 86.912-179.1232 0.0768-45.184 0.128-102.4768 0.128-169.088 0-63.104 0-130.7392-0.0768-197.9392l-0.0256-83.6352-0.0256-21.888-76.8 0.0768v21.8624l0.0512 83.6352a267702.016 267702.016 0 0 1-0.0512 366.848c-0.1024 57.728-19.712 93.44-52.5824 115.2512a128.8448 128.8448 0 0 1-50.432 19.6096H338.432z" p-id="1000"></path><path d="M631.936 667.5712V961.536h76.8V590.7712h-284.16v368.896h76.8v-292.096z" p-id="1001"></path></svg>